<?xml version="1.0" encoding="UTF-8" standalone="no"?>
<!-- Created with Inkscape (http://www.inkscape.org/) -->

<svg
   width="170.00017mm"
   height="130.00034mm"
   viewBox="0 0 170.00017 130.00034"
   version="1.1"
   id="svg1"
   xml:space="preserve"
   inkscape:version="1.3.1 (91b66b0, 2023-11-16)"
   sodipodi:docname="fence.svg"
   inkscape:export-filename="fence.png"
   inkscape:export-xdpi="747.05811"
   inkscape:export-ydpi="747.05811"
   xmlns:inkscape="http://www.inkscape.org/namespaces/inkscape"
   xmlns:sodipodi="http://sodipodi.sourceforge.net/DTD/sodipodi-0.dtd"
   xmlns:xlink="http://www.w3.org/1999/xlink"
   xmlns="http://www.w3.org/2000/svg"
   xmlns:svg="http://www.w3.org/2000/svg"><sodipodi:namedview
     id="namedview1"
     pagecolor="#ffffff"
     bordercolor="#000000"
     borderopacity="0.25"
     inkscape:showpageshadow="2"
     inkscape:pageopacity="0.0"
     inkscape:pagecheckerboard="0"
     inkscape:deskcolor="#d1d1d1"
     inkscape:document-units="mm"
     inkscape:zoom="0.14557369"
     inkscape:cx="638.8517"
     inkscape:cy="75.563105"
     inkscape:window-width="1256"
     inkscape:window-height="673"
     inkscape:window-x="57"
     inkscape:window-y="25"
     inkscape:window-maximized="0"
     inkscape:current-layer="layer1" /><defs
     id="defs1"><g
       id="s"><g
         id="c"><path
           transform="rotate(18,3.1568758,-0.5)"
           d="M 0,0 V 1 H 0.5 Z"
           id="t"
           inkscape:connector-curvature="0" /><use
           id="use12250"
           transform="scale(-1,1)"
           xlink:href="#t"
           x="0"
           y="0"
           width="100%"
           height="100%" /></g><g
         id="a"><use
           id="use12253"
           transform="rotate(72)"
           xlink:href="#c"
           x="0"
           y="0"
           width="100%"
           height="100%" /><use
           id="use12255"
           transform="rotate(144)"
           xlink:href="#c"
           x="0"
           y="0"
           width="100%"
           height="100%" /></g><use
         id="use12258"
         transform="scale(-1,1)"
         xlink:href="#a"
         x="0"
         y="0"
         width="100%"
         height="100%" /></g></defs><g
     inkscape:label="Layer 1"
     inkscape:groupmode="layer"
     id="layer1"
     transform="translate(6.9999864,30.000236)"><path
       id="rect1"
       style="fill:#d9e1fe;fill-opacity:1;stroke:none;stroke-width:6.06732"
       d="M 11.99999,-30.000236 -6.9999864,0 13.000034,100.0001 H 163.00018 L 143.00016,0 112.00009,-30.000236 93.000114,0 62.000039,-30.000236 43.000063,0 Z" /><path
       style="font-size:39.5446px;line-height:112.5%;font-family:'Quotes Script';-inkscape-font-specification:'Quotes Script';letter-spacing:0px;word-spacing:0px;fill:#042b5c;stroke-width:0.553623;stroke-linecap:square"
       d="m 20.37845,44.597201 c 1.858597,-0.434991 3.717193,-0.711803 5.536245,-1.146794 0.355901,-0.07909 0.672258,-0.237267 1.028159,-0.316357 0.51408,-0.118633 0.988615,-0.158178 1.46315,-0.316356 0.237268,-0.03955 0.474536,-0.197723 0.672259,-0.276813 l 0.711802,-0.197723 c 0.276813,-0.07909 0.51408,-0.276812 0.790892,-0.43499 h 0.197723 c 0.197723,0 0.237268,-0.07909 0.237268,-0.197723 0,-0.158179 -0.07909,-0.316357 -0.158178,-0.434991 -0.118634,-0.118634 -0.237268,-0.197723 -0.276813,-0.316357 -0.909525,-0.632713 -2.293586,-0.830436 -3.756737,-0.830436 -0.94907,0 -1.97723,0.07909 -2.965845,0.158178 -1.028159,0.07909 -2.135408,0.158179 -3.203112,0.197723 -0.672259,0.03955 -1.146794,0.118634 -1.621329,0.118634 -0.316357,0 -0.632714,-0.03954 -0.988615,-0.118634 -0.316357,-0.07909 -0.632714,-0.276812 -0.988615,-0.276812 h -0.158179 c -0.395446,0 -0.830436,0.118634 -1.186338,0.118634 -0.118633,0 -0.237267,0 -0.316356,-0.03954 -0.355902,-0.118634 -0.711803,-0.43499 -0.830437,-0.711803 -0.276812,-0.276812 -0.51408,-0.593169 -0.790892,-0.830436 -0.07909,-0.355902 -0.237268,-0.751348 -0.434991,-1.02816 -0.355901,0.316357 -0.711803,1.265427 -0.751347,1.779507 v 0.118634 c 0,0.118634 0.03954,0.276812 0.03954,0.395446 0,0.07909 0,0.118634 -0.03954,0.158178 0,0.118634 -0.316357,0.158179 -0.395446,0.276813 v 0.118633 c 0,0.118634 0,0.276813 0.03954,0.355902 -0.07909,0.237267 -0.07909,0.395446 -0.07909,0.553624 0.03954,0.632714 0.316357,1.107249 0.316357,1.700418 v 0.118634 c 0.118634,0.276812 0.316357,0.553624 0.593169,0.751347 0.316357,0.276812 0.751347,0.355902 1.067704,0.593169 C 10.452755,50.963882 5.826037,58.08191 2.8601919,65.04176 1.8715768,67.335347 1.0411402,69.747567 0.76432799,72.673868 1.2388632,72.634323 1.159774,72.515689 1.5156754,72.515689 h 0.5536244 c 0.197723,0 0.3954461,-0.237267 0.5931691,-0.237267 0.039545,0 0.079089,0.03954 0.1186338,0.03954 0.3559014,-0.395446 0.7513474,-0.51408 1.1072488,-0.830436 0.2768122,-0.197723 0.593169,-0.593169 0.8304366,-0.869982 l 0.7908921,-0.909525 c 0.197723,-0.197723 0.197723,-0.395446 0.2768122,-0.593169 0.1581784,-0.237268 0.3559014,-0.434991 0.5140798,-0.593169 l 0.395446,-0.751348 c 0.593169,-0.94907 1.1863381,-1.898141 1.7004179,-2.886756 0.2372676,-0.474535 0.6327136,-0.909526 0.9095258,-1.423605 0.3559014,-0.355902 0.4745352,-0.869982 0.7908921,-1.384061 0.672258,-1.02816 2.056319,-3.559015 2.728577,-4.54763 0.632714,0.118634 1.107249,0.197723 1.581784,0.197723 0.553625,0 1.146794,-0.118633 2.05632,-0.276812 0.672258,-0.118634 1.186338,-0.316357 1.819051,-0.474535 0.593169,-0.395446 1.502695,-0.395446 2.135409,-0.94907 0.118634,-0.118634 0.237268,-0.276813 0.316357,-0.474536 l 0.237267,-0.276812 c 0,-0.158178 -0.03954,-0.395446 -0.07909,-0.632714 0,-0.118633 0.158179,-0.593169 0.158179,-0.869981 0,-0.07909 0,-0.118634 -0.03955,-0.158178 -1.54224,0.118634 -2.451765,0.237267 -3.638103,0.237267 -0.593169,0 -1.265428,-0.03954 -2.174953,-0.118633 0.790892,-1.581784 1.937685,-3.00539 2.728577,-4.666263 0.118634,-0.316357 0.395446,-0.632714 0.632714,-0.949071 0.43499,-0.94907 1.46315,-2.49131 1.819051,-3.519469 z m 14.552413,-5.971235 c -0.316357,0.197723 -0.434991,0.751347 -0.632714,1.146793 -0.316357,-0.03954 -0.711803,-0.118633 -1.067704,-0.118633 -0.316357,0 -0.593169,0.07909 -0.711803,0.355901 0.07909,0.118634 0.197723,0.197723 0.197723,0.355901 v 0.118634 c 0,0.197723 -0.03955,0.434991 -0.118634,0.632714 -0.197723,0.553624 -0.553624,1.107249 -0.830436,1.660873 -0.276813,0.553624 -0.553625,1.107249 -0.869982,1.621329 -1.660873,3.242657 -3.519469,6.248047 -5.180342,9.569793 -1.660874,3.282202 -3.163569,6.603949 -4.784897,9.925695 -0.553625,1.146794 -1.107249,2.372676 -1.304972,3.677648 -0.03955,0.395446 -0.07909,0.711803 -0.07909,1.02816 0,1.186338 0.395446,1.898141 1.146793,2.41222 0.237268,0.118634 0.434991,0.276813 0.632714,0.395446 0.355901,0.197723 0.51408,0.276813 0.632713,0.830437 0.355902,0.118634 0.474536,0.434991 0.869982,0.434991 h 0.07909 c 0.316357,0 0.790892,-0.158179 1.186338,-0.316357 0.03954,0 0.07909,-0.03955 0.118634,-0.03955 2.886756,-1.028159 3.282202,-1.225882 5.022164,-1.779507 1.819052,-0.553624 2.214498,-0.830436 3.638103,-1.384061 0.711803,-0.237267 1.225883,-0.276812 1.581785,-0.43499 0.237267,-0.118634 0.355901,-0.237268 0.355901,-0.395446 0,-0.158179 -0.07909,-0.316357 -0.276812,-0.553625 -0.869982,-1.028159 -2.135409,-1.344516 -3.598559,-1.344516 -1.700418,0 -3.677648,0.395446 -5.41761,0.474535 1.265427,-2.372676 2.41222,-4.824441 3.677648,-7.118028 0.632713,-1.344517 1.304971,-2.609944 2.056319,-3.638104 1.898141,-0.118633 6.208502,-0.790892 7.553019,-1.739962 l 0.118633,-0.118634 c 0.632714,-0.51408 1.384062,-1.107249 1.384062,-2.016775 0.118633,-0.276812 0.355901,-0.355901 0.355901,-0.632713 -0.03955,0 -0.07909,-0.03954 -0.118634,-0.03954 -0.118634,0 -0.237267,0.07909 -0.355901,0.118634 -0.593169,0.197723 -0.869982,0.276812 -2.016775,0.434991 -0.593169,0.07909 -1.858596,0.118633 -2.9263,0.118633 -0.751348,0 -1.423606,0 -1.700418,-0.03954 0.909526,-1.700418 1.858596,-3.559014 2.728577,-5.378066 0.276812,-0.593169 1.067704,-2.174953 1.46315,-2.768122 0.790892,-0.03954 1.898141,-0.276812 3.51947,-0.553625 1.46315,-0.276812 4.863986,-0.909525 5.852601,-1.97723 0,-0.197723 -0.158178,-0.395446 -0.237268,-0.474535 -0.474535,-0.672258 -0.118633,-0.830436 -1.423605,-1.028159 -0.632714,-0.03954 -1.423606,-0.07909 -2.254043,-0.07909 -1.502694,0 -3.163568,0.07909 -4.349906,0.118634 -0.474535,0.03955 -1.146793,0.118634 -1.739962,0.118634 -0.434991,0 -0.790892,-0.03954 -0.988615,-0.197723 -0.158179,-0.118634 -0.355902,-0.474535 -0.553625,-0.711803 -0.118633,-0.237268 -0.276812,-0.672258 -0.632713,-0.672258 z m 13.44513,8.818446 c -0.237268,1.107249 -0.395446,2.016775 -0.593169,3.044934 -0.909526,4.745352 -1.779507,10.162963 -2.254043,14.591958 -0.03954,0.395446 -0.03954,0.790892 -0.03954,1.107249 0,1.621329 0.43499,2.451765 0.988615,3.479925 0.03954,0.118634 0.118634,0.197723 0.197723,0.316357 0.237267,0.395446 0.632713,0.790892 1.028159,1.146793 0.355902,0.316357 0.949071,0.751348 1.344517,0.790892 h 0.197723 c 0.316357,0 0.316357,-0.07909 0.672258,-0.197723 0.197723,0.158179 0.395446,0.237268 0.632714,0.237268 0.395446,0 0.830436,-0.197723 1.146793,-0.434991 0.355902,-0.395446 0.751348,-0.988615 1.107249,-1.621328 0.395446,-0.553625 0.751347,-1.146794 1.146793,-1.621329 0.672259,-1.186338 1.265428,-2.412221 1.937686,-3.598559 l 2.016775,-3.559014 c 0.632713,-1.186338 1.384061,-2.412221 1.937685,-3.598559 1.384061,-2.49131 2.649488,-4.943075 3.875371,-7.315751 0.672258,-1.304972 2.372676,-3.598559 2.451765,-4.112638 0.118634,-0.711803 0.711803,-1.265428 1.02816,-1.937686 0.51408,-0.632714 0.51408,-1.02816 0.869981,-1.621329 0.118634,-0.276812 0.316357,-0.593169 0.434991,-0.988615 0.197723,-0.355901 0.316357,-0.672258 0.316357,-0.909525 0,-0.237268 -0.118634,-0.395446 -0.51408,-0.395446 h -0.395446 c -0.395446,0 -0.988615,-0.03955 -1.502695,-0.03955 -0.434991,0 -0.869981,0.03955 -1.02816,0.158178 -0.51408,0.395446 -0.869981,0.790892 -0.869981,1.186338 v 0.07909 c -0.03954,0.03954 -0.03954,0.07909 -0.03954,0.118633 0,0.158179 0.158179,0.276813 0.197723,0.553625 -2.451765,4.112638 -4.310361,7.829831 -6.722582,12.061103 -2.016774,3.51947 -3.914915,7.513475 -6.050324,10.795676 -0.197723,0.395446 -0.51408,1.02816 -0.988615,1.304972 0.711803,-3.796281 1.344517,-7.711197 2.174953,-11.665657 0.197723,-0.949071 0.434991,-1.858596 0.632714,-2.886756 0.395446,-1.898141 0.593169,-3.638103 0.909526,-5.813056 0.07909,-0.553625 0.118633,-1.107249 0.118633,-1.621329 0,-0.553625 -0.03954,-1.146794 -0.237267,-1.581784 -0.474535,-0.988615 -1.423606,-1.858596 -2.649488,-1.937686 -0.593169,0 -1.225883,0 -1.819052,0.03954 -0.593169,0.118634 -0.869981,0.434991 -1.146794,0.94907 -0.237267,0.237268 -0.395446,0.593169 -0.672258,0.869982 -0.395446,0.316356 -0.711803,0.553624 -1.186338,0.869981 -2.807667,4.231272 -4.389451,8.027554 -6.95985,12.614728 -2.095864,3.756737 -4.46854,8.699812 -6.643493,12.575183 l -0.158178,0.237268 -0.07909,0.158178 c -0.395446,0.632714 -0.869982,1.423606 -0.869982,2.135408 0,0.672259 0.474536,1.225883 1.977231,1.225883 0.197723,0 0.395446,-0.03954 0.632713,-0.03954 0.830437,-0.158179 0.672258,-0.158179 1.423606,-1.700418 3.282202,-6.762127 6.129413,-12.535639 8.185732,-16.608733 1.660874,-3.282202 2.689033,-4.903531 3.598559,-6.762127 z m 24.596749,6.168958 c 0,0.197723 0.197723,0.316357 0.276812,0.474535 0.07909,0.197723 0.07909,0.474535 0.158178,0.632714 0.434991,0.672258 1.265427,1.423605 2.135409,1.937685 0.355901,0.158179 0.751347,0.316357 1.265427,0.316357 h 0.197723 c 1.265427,-0.07909 2.135408,-0.909526 2.886756,-1.621329 l 0.197723,-0.197723 c 0.869981,-0.94907 1.621329,-1.97723 2.412221,-3.282202 0.593169,-1.067704 1.146793,-2.095864 1.581784,-3.361291 0.197723,-0.593169 0.514079,-1.265427 0.593169,-1.858596 0.03954,-0.237268 0.03954,-0.434991 0.03954,-0.632714 0,-0.909525 -0.197723,-1.739962 -0.593169,-2.214497 -0.909526,-1.107249 -2.135408,-1.739963 -3.677648,-2.254043 -1.067704,-0.395446 -2.174953,-0.869981 -3.282202,-1.186338 -0.355901,-0.118633 -0.790892,-0.316356 -1.146793,-0.316356 h -0.118634 c -0.395446,0.07909 -0.869981,0.07909 -1.304972,0.237267 -0.43499,0.197723 -0.869981,0.751348 -1.384061,1.225883 -1.46315,1.186338 -2.965845,2.333131 -4.191728,3.638103 -1.581784,1.700418 -3.282201,3.638103 -4.705807,5.694423 -1.423606,2.135408 -2.530855,4.349906 -3.282202,7.078483 -0.434991,1.581784 -0.751347,3.598559 -0.751347,5.575789 0,0.474535 0,0.949071 0.03954,1.384061 0.07909,0.869981 0.118634,1.581784 0.276812,2.293587 0.03954,0.118634 0.118634,0.197723 0.118634,0.316357 l 0.07909,0.316357 c 0.158179,0.672258 0.51408,1.304972 0.869982,1.858596 0.514079,0.790892 1.186338,1.46315 1.97723,2.095864 0.355901,0.237267 0.830436,0.474535 1.344516,0.632714 0.51408,0.118633 1.146794,0.237267 1.779507,0.276812 0.316357,0 0.672258,-0.07909 1.02816,-0.07909 0.553624,0.03954 1.028159,0.07909 1.46315,0.07909 0.316357,0 0.672258,-0.03955 0.988615,-0.118634 0.711803,-0.158178 1.344517,-0.474535 1.97723,-0.751348 l 2.016775,-1.384061 c 0.355901,-0.593169 0.830436,-0.94907 1.265427,-1.423605 0.276812,-0.355902 0.711803,-0.593169 0.869981,-0.909526 0.118634,-0.158178 0.07909,-0.395446 0.197723,-0.593169 0.118634,-0.316357 0.395446,-0.51408 0.395446,-0.909526 v -0.07909 c 0.118634,-0.237268 0.316357,-0.434991 0.434991,-0.711803 0.118634,-0.316357 0.118634,-0.672258 0.237268,-0.94907 0.316356,-0.869982 0.94907,-1.660874 1.107248,-2.609944 -0.711802,0.909526 -1.46315,1.779507 -2.41222,2.570399 -0.909526,0.711803 -1.937686,1.384061 -2.965845,1.97723 -1.02816,0.632714 -2.174953,1.146794 -3.559015,1.502695 -0.751347,0.158178 -1.700417,0.355901 -2.609943,0.355901 -0.632714,0 -1.225883,-0.07909 -1.739963,-0.316356 -0.395446,-0.869982 -0.553624,-1.937686 -0.553624,-3.00539 0,-1.581784 0.355901,-3.242657 0.711803,-4.508085 0.316357,-1.067704 0.632713,-2.135408 1.107249,-3.005389 0.474535,-0.949071 0.94907,-1.819052 1.542239,-2.649489 0.553624,-0.830436 1.146793,-1.581784 1.739963,-2.41222 0.514079,-0.711803 1.265427,-1.54224 1.89814,-2.174953 1.502695,-1.384062 3.677648,-3.756738 5.298977,-4.98262 0.790892,-0.593169 1.660873,-1.225883 2.768122,-1.423606 0.197723,0.355901 0.276812,0.711803 0.276812,1.067704 0,0.909526 -0.51408,1.858597 -0.869981,2.530855 l -0.07909,0.158178 c -1.107249,1.937686 -2.372676,3.835827 -3.914916,5.378066 -0.276812,0.276812 -0.751347,0.672258 -1.107249,0.711803 -0.474535,0 -0.909525,-0.316357 -1.304971,-0.395446 z M 93.338211,38.625966 c -0.316356,0.197723 -0.43499,0.751347 -0.632713,1.146793 -0.316357,-0.03954 -0.711803,-0.118633 -1.067705,-0.118633 -0.316356,0 -0.593169,0.07909 -0.711802,0.355901 0.07909,0.118634 0.197723,0.197723 0.197723,0.355901 v 0.118634 c 0,0.197723 -0.03955,0.434991 -0.118634,0.632714 -0.197723,0.553624 -0.553625,1.107249 -0.830437,1.660873 -0.276812,0.553624 -0.553624,1.107249 -0.869981,1.621329 -1.660873,3.242657 -3.51947,6.248047 -5.180343,9.569793 -1.660873,3.282202 -3.163568,6.603949 -4.784897,9.925695 -0.553624,1.146794 -1.107248,2.372676 -1.304971,3.677648 -0.03955,0.395446 -0.07909,0.711803 -0.07909,1.02816 0,1.186338 0.395446,1.898141 1.146794,2.41222 0.237267,0.118634 0.43499,0.276813 0.632713,0.395446 0.355902,0.197723 0.51408,0.276813 0.632714,0.830437 0.355901,0.118634 0.474535,0.434991 0.869981,0.434991 h 0.07909 c 0.316356,0 0.790892,-0.158179 1.186338,-0.316357 0.03954,0 0.07909,-0.03955 0.118633,-0.03955 2.886756,-1.028159 3.282202,-1.225882 5.022165,-1.779507 1.819051,-0.553624 2.214497,-0.830436 3.638103,-1.384061 0.711803,-0.237267 1.225883,-0.276812 1.581784,-0.43499 0.237268,-0.118634 0.355902,-0.237268 0.355902,-0.395446 0,-0.158179 -0.07909,-0.316357 -0.276813,-0.553625 -0.869981,-1.028159 -2.135408,-1.344516 -3.598558,-1.344516 -1.700418,0 -3.677648,0.395446 -5.417611,0.474535 1.265427,-2.372676 2.412221,-4.824441 3.677648,-7.118028 0.632714,-1.344517 1.304972,-2.609944 2.056319,-3.638104 1.898141,-0.118633 6.208503,-0.790892 7.553019,-1.739962 l 0.118634,-0.118634 c 0.632714,-0.51408 1.384061,-1.107249 1.384061,-2.016775 0.118634,-0.276812 0.355902,-0.355901 0.355902,-0.632713 -0.03955,0 -0.07909,-0.03954 -0.118634,-0.03954 -0.118634,0 -0.237268,0.07909 -0.355902,0.118634 -0.593169,0.197723 -0.869981,0.276812 -2.016774,0.434991 -0.593169,0.07909 -1.858597,0.118633 -2.926301,0.118633 -0.751347,0 -1.423605,0 -1.700418,-0.03954 0.909526,-1.700418 1.858597,-3.559014 2.728578,-5.378066 0.276812,-0.593169 1.067704,-2.174953 1.46315,-2.768122 0.790892,-0.03954 1.898141,-0.276812 3.51947,-0.553625 1.463152,-0.276812 4.863982,-0.909525 5.852602,-1.97723 0,-0.197723 -0.15818,-0.395446 -0.23727,-0.474535 -0.47453,-0.672258 -0.11863,-0.830436 -1.4236,-1.028159 -0.63272,-0.03954 -1.42361,-0.07909 -2.25405,-0.07909 -1.50269,0 -3.163565,0.07909 -4.349903,0.118634 -0.474535,0.03955 -1.146794,0.118634 -1.739963,0.118634 -0.43499,0 -0.790892,-0.03954 -0.988615,-0.197723 -0.158178,-0.118634 -0.355901,-0.474535 -0.553624,-0.711803 -0.118634,-0.237268 -0.276812,-0.672258 -0.632714,-0.672258 z"
       id="text5"
       transform="rotate(-15)"
       aria-label="FENCE" /></g></svg>
