<?xml version="1.0" encoding="UTF-8" standalone="no"?>
<!-- Created with Inkscape (http://www.inkscape.org/) -->

<svg
   width="422.53333mm"
   height="506.40005mm"
   viewBox="0 0 422.53333 506.40005"
   version="1.1"
   id="svg1"
   xml:space="preserve"
   inkscape:version="1.3.1 (91b66b0, 2023-11-16)"
   sodipodi:docname="iconProfile.svg"
   inkscape:export-filename="iconProfile.png"
   inkscape:export-xdpi="96.303307"
   inkscape:export-ydpi="96.303307"
   xmlns:inkscape="http://www.inkscape.org/namespaces/inkscape"
   xmlns:sodipodi="http://sodipodi.sourceforge.net/DTD/sodipodi-0.dtd"
   xmlns="http://www.w3.org/2000/svg"
   xmlns:svg="http://www.w3.org/2000/svg"><sodipodi:namedview
     id="namedview1"
     pagecolor="#ffffff"
     bordercolor="#000000"
     borderopacity="0.25"
     inkscape:showpageshadow="2"
     inkscape:pageopacity="0.0"
     inkscape:pagecheckerboard="0"
     inkscape:deskcolor="#d1d1d1"
     inkscape:document-units="mm"
     inkscape:zoom="0.17166382"
     inkscape:cx="-174.76017"
     inkscape:cy="934.96693"
     inkscape:window-width="1376"
     inkscape:window-height="686"
     inkscape:window-x="0"
     inkscape:window-y="25"
     inkscape:window-maximized="0"
     inkscape:current-layer="layer1" /><defs
     id="defs1" /><g
     inkscape:label="Layer 1"
     inkscape:groupmode="layer"
     id="layer1"
     transform="translate(106.81328,129.70005)"><path
       d="m 290.72006,283.17292 c 0,21.16667 -6.43819,37.87951 -19.31458,50.13854 C 258.52909,345.57049 241.41936,351.7 220.07631,351.7 H -11.169523 c -21.343059,0 -38.452782,-6.12951 -51.329171,-18.38854 -12.876389,-12.25903 -19.314583,-28.97187 -19.314583,-50.13854 0,-9.34861 0.30868,-18.47674 0.926041,-27.38438 0.617361,-8.90763 1.852084,-18.52083 3.704167,-28.83958 1.852083,-10.31875 4.189236,-19.88784 7.011458,-28.70729 2.822223,-8.81945 6.614584,-17.41841 11.377084,-25.79688 4.7625,-8.37847 10.230555,-15.52222 16.404166,-21.43125 6.173612,-5.90903 13.714238,-10.62743 22.621878,-14.1552 8.90764,-3.52778 18.7413198,-5.29167 29.5010398,-5.29167 1.5875002,0 5.2916672,1.89618 11.1125002,5.68854 5.820833,3.79236 12.39132,8.02569 19.71146,12.7 7.32014,4.67431 16.84514,8.90764 28.575,12.7 11.72986,3.79236 23.503818,5.68854 35.321873,5.68854 11.81806,0 23.59202,-1.89618 35.32188,-5.68854 11.72986,-3.79236 21.25486,-8.02569 28.575,-12.7 7.32014,-4.67431 13.89063,-8.90764 19.71146,-12.7 5.82083,-3.79236 9.525,-5.68854 11.1125,-5.68854 10.75972,0 20.5934,1.76389 29.50104,5.29167 8.90764,3.52777 16.44826,8.24617 22.62187,14.1552 6.17361,5.90903 11.64167,13.05278 16.40417,21.43125 4.7625,8.37847 8.55486,16.97743 11.37708,25.79688 2.82223,8.81945 5.15938,18.38854 7.01146,28.70729 1.85209,10.31875 3.08681,19.93195 3.70417,28.83958 0.61736,8.90764 0.92604,18.03577 0.92604,27.38438 z M 206.05339,-3.1000485 c 0,28.0458325 -9.92187,51.9902465 -29.76562,71.8340005 -19.84375,19.843756 -43.78855,29.766095 -71.83438,29.766095 -28.045835,0 -51.990626,-9.922149 -71.834373,-29.765905 C 12.775264,48.890388 2.8533868,24.945784 2.8533868,-3.1000485 c 0,-28.0458325 9.9218772,-51.9906235 29.7656302,-71.8343725 19.843747,-19.843751 43.788538,-29.765629 71.834373,-29.765629 28.04583,0 51.99063,9.921879 71.83438,29.765629 19.84375,19.843749 29.76562,43.78854 29.76562,71.8343725 z"
       id="path1"
       style="fill:none;stroke:#d9e1fe;stroke-width:50;stroke-dasharray:none;stroke-opacity:1"
       sodipodi:nodetypes="sssssssssssssssssssssssssssssssssssss" /></g></svg>
